<?xml version="1.0" encoding="UTF-8"?>
<svg id="Layer_1" data-name="Layer 1" xmlns="http://www.w3.org/2000/svg" viewBox="0 0 820 411.59">
  <defs>
    <style>
      .cls-1 {
        fill: #1a4775;
      }
    </style>
  </defs>
  <path d="m382.59,258.2v-16.53h437.41v16.53h-437.41Z"/>
  <path d="m0,258.2v-16.53h308.84v16.53H0Z"/>
  <g>
    <g>
      <path d="m0,410.16v-132.03h9.06c5.45,0,10.84-.24,16.17-.71,5.33-.47,10.96-.71,16.88-.71,9.6,0,17.86,1.5,24.79,4.49,6.93,2.99,12.26,7.67,15.99,14.04,3.73,6.37,5.6,14.65,5.6,24.84,0,14.39-4.34,25.6-13.02,33.63-8.68,8.03-21.28,12.04-37.81,12.04-4.15,0-7.57-.03-10.26-.09-2.7-.06-4.84-.09-6.44-.09v44.6H0Zm20.97-60.6c2.67.35,5.32.59,7.95.71,2.63.12,5.14.18,7.51.18,5.51,0,10.66-.78,15.46-2.35,4.8-1.57,8.66-4.53,11.6-8.88,2.93-4.35,4.4-10.74,4.4-19.15,0-10.13-2.71-17.49-8.13-22.08-5.42-4.59-13.25-6.71-23.5-6.35-2.55.06-5.15.21-7.82.45-2.67.24-5.15.62-7.46,1.15v56.33Z"/>
      <path d="m164.02,411.58c-12.26.24-22.87-2.56-31.81-8.4-8.94-5.83-15.79-13.95-20.52-24.35-4.74-10.4-6.96-22.29-6.66-35.67.3-14.75,3.21-27.04,8.75-36.87,5.54-9.83,12.91-17.21,22.12-22.12,9.21-4.92,19.47-7.4,30.79-7.46,11.73-.06,21.95,2.68,30.65,8.22,8.71,5.54,15.42,13.37,20.12,23.5,4.71,10.13,6.92,22.01,6.62,35.63-.3,14.75-3.08,27.09-8.35,37.01-5.27,9.92-12.38,17.43-21.32,22.52-8.95,5.1-19.07,7.76-30.39,8Zm.53-15.99c11.73,0,21.06-4.43,27.99-13.28,6.93-8.86,10.4-21.9,10.4-39.14,0-9.12-1.38-17.52-4.13-25.19-2.75-7.67-6.87-13.83-12.35-18.48-5.48-4.65-12.31-6.98-20.48-6.98-7.17,0-13.77,1.84-19.81,5.51-6.04,3.67-10.88,9.33-14.53,16.97-3.64,7.64-5.46,17.45-5.46,29.41,0,9.06,1.44,17.49,4.31,25.28,2.87,7.79,7.15,14.05,12.84,18.79,5.69,4.74,12.76,7.11,21.24,7.11Z"/>
      <path d="m252.07,410.16v-132.03h20.97v132.03h-20.97Z"/>
      <path d="m308.84,360.4v-16.53h73.75v16.53h-73.75Z"/>
      <path d="m416,410.16v-132.03h10.31c2.78,0,5.86-.12,9.24-.35,3.38-.24,6.95-.47,10.71-.71,3.76-.24,7.6-.36,11.51-.36,21.44,0,37.32,5.58,47.62,16.75,10.31,11.17,15.46,26.79,15.46,46.87,0,15.05-2.65,27.93-7.95,38.65-5.3,10.72-12.84,18.9-22.61,24.52-9.77,5.63-21.32,8.32-34.65,8.09-4.68-.12-9.89-.39-15.64-.8-5.75-.41-10.9-.62-15.46-.62h-8.53Zm20.97-15.82c2.84.59,6.26,1.02,10.26,1.29,4,.27,7.8.37,11.42.31,7.88-.12,14.85-1.98,20.92-5.6,6.07-3.61,10.82-9.27,14.26-16.97,3.43-7.7,5.15-17.71,5.15-30.03s-1.69-22.85-5.06-30.34c-3.38-7.49-8.43-12.87-15.15-16.13-6.72-3.26-15.09-4.89-25.1-4.89-3.44,0-6.61.12-9.51.35-2.9.24-5.3.54-7.2.89v101.11Z"/>
      <path d="m583.21,411.58c-14.22,0-25.18-4.5-32.88-13.51-7.7-9-11.55-21.5-11.55-37.49,0-9.6,1.7-18.19,5.11-25.77,3.41-7.58,8.44-13.59,15.1-18.04,6.66-4.44,14.85-6.72,24.57-6.84,4.98-.12,9.66.59,14.04,2.13,4.38,1.54,8.26,3.87,11.64,6.98,3.38,3.11,6.05,7.04,8.04,11.77,1.98,4.74,3.07,10.28,3.24,16.62,0,3.73-.03,7.06-.09,10-.06,2.93-.33,5.52-.8,7.78h-68.95l1.78-12.97h48.87c.3-4.74.01-9.23-.84-13.46-.86-4.23-2.7-7.67-5.51-10.31-2.81-2.64-6.98-3.96-12.48-3.96-4.62,0-8.77,1.29-12.44,3.87-3.67,2.58-6.52,6.92-8.53,13.02-2.01,6.1-2.84,14.45-2.49,25.06.35,7.46,1.87,13.36,4.53,17.68,2.67,4.32,6.16,7.4,10.48,9.24,4.32,1.84,9.15,2.75,14.48,2.75,2.25,0,5-.25,8.26-.75,3.26-.5,6.41-1.15,9.46-1.95,3.05-.8,5.37-1.67,6.98-2.62l3.91,11.73c-2.19,1.78-5.17,3.35-8.93,4.71-3.76,1.36-7.83,2.43-12.22,3.2-4.38.77-8.65,1.15-12.79,1.15Z"/>
      <path d="m640.25,404.29l2.84-15.11c.89.65,2.74,1.53,5.55,2.62,2.81,1.1,6.19,2.1,10.13,3.02,3.94.92,8.01,1.41,12.22,1.47,5.69.06,10.01-.92,12.97-2.93,2.96-2.01,4.44-4.83,4.44-8.44,0-2.55-.89-4.77-2.67-6.66-1.78-1.89-4.22-3.66-7.33-5.29-3.11-1.63-6.65-3.33-10.62-5.11-5.33-2.43-10.04-5.07-14.13-7.91-4.09-2.84-7.27-6.19-9.55-10.04-2.28-3.85-3.39-8.47-3.33-13.86.12-5.86,1.82-10.74,5.11-14.62,3.29-3.88,7.65-6.77,13.1-8.66,5.45-1.89,11.52-2.84,18.21-2.84,6.22,0,11.67.64,16.35,1.91,4.68,1.28,7.76,2.35,9.24,3.24l-3.02,15.46c-1.07-.89-2.71-1.76-4.93-2.62-2.22-.86-4.78-1.55-7.69-2.09-2.9-.53-5.86-.8-8.88-.8-6.04,0-10.61.87-13.68,2.62-3.08,1.75-4.68,4.19-4.8,7.33-.06,4.32,1.44,7.55,4.49,9.68,3.05,2.13,6.71,4.24,10.97,6.31,6.1,2.96,11.61,5.88,16.53,8.75,4.92,2.87,8.81,6.16,11.68,9.86,2.87,3.7,4.31,8.28,4.31,13.73,0,9.24-3.17,16.26-9.51,21.06-6.34,4.8-15.02,7.2-26.03,7.2-4.56,0-8.99-.36-13.28-1.07-4.3-.71-8.09-1.63-11.37-2.75-3.29-1.13-5.73-2.28-7.33-3.47Z"/>
      <path d="m815.74,311.18l-64.68,67.53,1.78-4.8.35,17.06v19.19h-19.9v-144.12h19.9v75.34l-.71,21.68-4.8-3.38,44.07-48.51h23.99Zm-52.24,50.29l13.86-13.33,42.65,62.02h-23.28l-33.23-48.69Z"/>
    </g>
    <path class="cls-1" d="m472.53,65.79c-.16-.42-.31-.83-.54-1.21-.13-.23-.31-.43-.47-.64-.24-.32-.47-.64-.76-.92-.2-.2-.43-.36-.66-.54-.22-.17-.4-.37-.64-.52-.11-.07-.23-.09-.33-.15-.09-.05-.17-.13-.26-.18L347.22.81c-2.14-1.07-4.66-1.07-6.8,0l-121.65,60.82c-.1.05-.17.13-.26.18-.11.06-.23.09-.33.15-.24.15-.42.35-.64.52-.23.18-.46.34-.66.54-.29.28-.53.6-.76.92-.16.21-.33.41-.47.64-.23.38-.38.79-.54,1.21-.08.21-.19.4-.25.62-.18.65-.28,1.32-.28,2.01v129.25c0,2.88,1.63,5.51,4.2,6.8l15.21,7.6c1.07.54,2.24.8,3.4.8s2.33-.27,3.4-.8l15.21-7.6c2.58-1.29,4.2-3.92,4.2-6.8v-71.33l60.82,30.41v94.14c0,2.88,1.63,5.51,4.2,6.8l15.21,7.6c1.07.54,2.24.8,3.4.8s2.33-.27,3.4-.8l15.21-7.6c2.58-1.29,4.2-3.92,4.2-6.8v-94.14l60.82-30.41v71.33c0,2.88,1.63,5.51,4.2,6.8l15.21,7.6c1.07.54,2.24.8,3.4.8s2.33-.27,3.4-.8l15.21-7.6c2.58-1.29,4.2-3.92,4.2-6.8V68.43c0-.69-.1-1.37-.28-2.01-.06-.22-.17-.41-.25-.62Zm-128.71-49.69l104.65,52.32-104.65,52.32-104.65-52.32,104.65-52.32Zm-98.84,176.87l-7.6,3.8-7.6-3.8v-81.84l15.21,7.6v74.23Zm106.44,53.22l-7.6,3.8-7.6-3.8v-81.84l4.2,2.1c1.07.54,2.24.8,3.4.8s2.33-.27,3.4-.8l4.2-2.1v81.84Zm106.44-53.22l-7.6,3.8-7.6-3.8v-74.23l15.21-7.6v81.84Zm0-98.84l-114.04,57.02-114.04-57.02v-13.41l110.64,55.32c2.14,1.07,4.66,1.07,6.8,0l110.64-55.32v13.41Z"/>
  </g>
</svg>